<svg width="22" height="22" viewBox="0 0 22 22" fill="none" xmlns="http://www.w3.org/2000/svg">
<path d="M11 6.59348C8.56155 6.59348 6.59358 8.56145 6.59358 10.9999C6.59358 13.4384 8.56155 15.4064 11 15.4064C13.4385 15.4064 15.4065 13.4384 15.4065 10.9999C15.4065 8.56145 13.4385 6.59348 11 6.59348ZM11 13.8638C9.42307 13.8638 8.13616 12.5769 8.13616 10.9999C8.13616 9.42298 9.42307 8.13606 11 8.13606C12.577 8.13606 13.8639 9.42298 13.8639 10.9999C13.8639 12.5769 12.577 13.8638 11 13.8638ZM15.5869 5.38606C15.0176 5.38606 14.5578 5.84583 14.5578 6.41516C14.5578 6.9845 15.0176 7.44427 15.5869 7.44427C16.1563 7.44427 16.616 6.98665 16.616 6.41516C16.6162 6.27997 16.5897 6.14608 16.5381 6.02114C16.4864 5.89621 16.4106 5.7827 16.315 5.6871C16.2194 5.59151 16.1059 5.51571 15.981 5.46405C15.856 5.4124 15.7221 5.38589 15.5869 5.38606ZM19.5895 10.9999C19.5895 9.81399 19.6002 8.6388 19.5336 7.45501C19.467 6.08001 19.1534 4.8597 18.1479 3.85423C17.1403 2.84661 15.9221 2.53509 14.5471 2.46849C13.3612 2.40188 12.186 2.41263 11.0022 2.41263C9.81624 2.41263 8.64104 2.40188 7.45725 2.46849C6.08225 2.53509 4.86194 2.84876 3.85647 3.85423C2.84886 4.86184 2.53733 6.08001 2.47073 7.45501C2.40413 8.64095 2.41487 9.81614 2.41487 10.9999C2.41487 12.1837 2.40413 13.3611 2.47073 14.5449C2.53733 15.9199 2.851 17.1402 3.85647 18.1456C4.86409 19.1532 6.08225 19.4648 7.45725 19.5314C8.64319 19.598 9.81839 19.5872 11.0022 19.5872C12.1881 19.5872 13.3633 19.598 14.5471 19.5314C15.9221 19.4648 17.1424 19.1511 18.1479 18.1456C19.1555 17.138 19.467 15.9199 19.5336 14.5449C19.6024 13.3611 19.5895 12.1859 19.5895 10.9999ZM17.6989 16.0659C17.542 16.457 17.353 16.7491 17.05 17.0499C16.7471 17.3529 16.4571 17.5419 16.066 17.6988C14.936 18.1478 12.2526 18.0468 11 18.0468C9.74749 18.0468 7.06194 18.1478 5.93186 17.7009C5.54085 17.5441 5.24866 17.355 4.94788 17.0521C4.64495 16.7491 4.45589 16.4591 4.29905 16.0681C3.85218 14.9359 3.95315 12.2525 3.95315 10.9999C3.95315 9.74739 3.85218 7.06184 4.29905 5.93177C4.45589 5.54075 4.64495 5.24856 4.94788 4.94778C5.25081 4.647 5.54085 4.45579 5.93186 4.29895C7.06194 3.85208 9.74749 3.95306 11 3.95306C12.2526 3.95306 14.9381 3.85208 16.0682 4.29895C16.4592 4.45579 16.7514 4.64485 17.0522 4.94778C17.3551 5.25071 17.5442 5.54075 17.701 5.93177C18.1479 7.06184 18.0469 9.74739 18.0469 10.9999C18.0469 12.2525 18.1479 14.9359 17.6989 16.0659Z" fill="black"/>
</svg>
