<svg width="22" height="22" viewBox="0 0 22 22" fill="none" xmlns="http://www.w3.org/2000/svg">
<path d="M19.9375 5.46349C19.2801 5.74708 18.5647 5.95118 17.8278 6.03067C18.5928 5.57614 19.1658 4.85805 19.4391 4.01114C18.7211 4.43823 17.9346 4.73771 17.1145 4.8963C16.7717 4.52983 16.3571 4.23789 15.8965 4.03866C15.436 3.83943 14.9393 3.73718 14.4375 3.73829C12.4072 3.73829 10.7744 5.38399 10.7744 7.40352C10.7744 7.68712 10.8088 7.97071 10.8647 8.24356C7.82463 8.08458 5.11331 6.63224 3.31077 4.4086C2.98232 4.96959 2.81021 5.60835 2.81233 6.25841C2.81233 7.53028 3.45901 8.65177 4.44514 9.31134C3.864 9.28845 3.29646 9.12872 2.7887 8.84513V8.89024C2.7887 10.6713 4.04768 12.1473 5.72561 12.4867C5.41056 12.5686 5.08646 12.6104 4.76096 12.6113C4.52248 12.6113 4.2969 12.5877 4.06916 12.5555C4.53323 14.0078 5.88459 15.0627 7.49377 15.0971C6.23479 16.0832 4.65784 16.6633 2.94553 16.6633C2.63831 16.6633 2.35471 16.6525 2.06038 16.6182C3.68459 17.6602 5.61174 18.2617 7.68713 18.2617C14.4246 18.2617 18.1114 12.6801 18.1114 7.83536C18.1114 7.67638 18.1114 7.51739 18.1006 7.35841C18.8139 6.83634 19.4391 6.18966 19.9375 5.46349Z" fill="black"/>
</svg>
