<svg width="24" height="25" viewBox="0 0 24 25" fill="none" xmlns="http://www.w3.org/2000/svg">
<path fill-rule="evenodd" clip-rule="evenodd" d="M15.1956 18.2007C15.5826 18.5947 16.2158 18.6004 16.6098 18.2134L21.7007 13.2134C21.8922 13.0254 22 12.7683 22 12.5C22 12.2317 21.8922 11.9746 21.7007 11.7866L16.6098 6.78655C16.2158 6.39956 15.5826 6.40526 15.1956 6.79929C14.8087 7.19332 14.8144 7.82646 15.2084 8.21345L18.5547 11.5L3 11.5C2.44772 11.5 2 11.9477 2 12.5C2 13.0523 2.44772 13.5 3 13.5L18.5547 13.5L15.2084 16.7866C14.8144 17.1735 14.8087 17.8067 15.1956 18.2007Z" fill="white"/>
</svg>
