<svg width="38" height="38" viewBox="0 0 38 38" fill="none" xmlns="http://www.w3.org/2000/svg">
<path d="M35.8071 19.4769C35.6133 19.4769 35.4274 19.5539 35.2904 19.691C35.1533 19.828 35.0764 20.0139 35.0764 20.2077V28.5235C35.0757 29.1048 34.8445 29.662 34.4336 30.073C34.0226 30.484 33.4653 30.7151 32.8841 30.7158H5.11588C4.53466 30.7151 3.97742 30.484 3.56644 30.073C3.15545 29.662 2.92428 29.1048 2.92365 28.5235V19.0239H24.0421C24.2359 19.0239 24.4218 18.9469 24.5588 18.8098C24.6959 18.6728 24.7729 18.4869 24.7729 18.2931C24.7729 18.0993 24.6959 17.9134 24.5588 17.7764C24.4218 17.6394 24.2359 17.5624 24.0421 17.5624H2.92365V16.1009H22.8656C23.0594 16.1009 23.2453 16.0239 23.3823 15.8869C23.5194 15.7498 23.5964 15.564 23.5964 15.3701C23.5964 15.1763 23.5194 14.9905 23.3823 14.8534C23.2453 14.7164 23.0594 14.6394 22.8656 14.6394H2.92365V13.9087C2.92428 13.3274 3.15545 12.7702 3.56644 12.3592C3.97742 11.9482 4.53466 11.7171 5.11588 11.7164H22.6537C22.8475 11.7164 23.0334 11.6394 23.1704 11.5024C23.3075 11.3654 23.3845 11.1795 23.3845 10.9857C23.3845 10.7919 23.3075 10.606 23.1704 10.469C23.0334 10.3319 22.8475 10.2549 22.6537 10.2549H5.11588C4.1472 10.2561 3.21852 10.6414 2.53357 11.3264C1.84861 12.0113 1.4633 12.94 1.46216 13.9087V28.5235C1.4633 29.4922 1.84861 30.4209 2.53357 31.1058C3.21852 31.7908 4.1472 32.1761 5.11588 32.1772H32.8841C33.8528 32.1761 34.7815 31.7908 35.4664 31.1058C36.1514 30.4209 36.5367 29.4922 36.5378 28.5235V20.2077C36.5378 20.0139 36.4609 19.828 36.3238 19.691C36.1868 19.5539 36.0009 19.4769 35.8071 19.4769Z" fill="white"/>
<path d="M8.03885 23.4083H5.11588C4.92207 23.4083 4.7362 23.4853 4.59916 23.6224C4.46212 23.7594 4.38513 23.9453 4.38513 24.1391C4.38513 24.3329 4.46212 24.5187 4.59916 24.6558C4.7362 24.7928 4.92207 24.8698 5.11588 24.8698H8.03885C8.23265 24.8698 8.41852 24.7928 8.55556 24.6558C8.6926 24.5187 8.76959 24.3329 8.76959 24.1391C8.76959 23.9453 8.6926 23.7594 8.55556 23.6224C8.41852 23.4853 8.23265 23.4083 8.03885 23.4083Z" fill="white"/>
<path d="M8.03885 27.062H5.11588C4.92207 27.062 4.7362 27.139 4.59916 27.276C4.46212 27.4131 4.38513 27.599 4.38513 27.7928C4.38513 27.9866 4.46212 28.1724 4.59916 28.3095C4.7362 28.4465 4.92207 28.5235 5.11588 28.5235H8.03885C8.23265 28.5235 8.41852 28.4465 8.55556 28.3095C8.6926 28.1724 8.76959 27.9866 8.76959 27.7928C8.76959 27.599 8.6926 27.4131 8.55556 27.276C8.41852 27.139 8.23265 27.062 8.03885 27.062Z" fill="white"/>
<path d="M10.9618 27.062C10.768 27.062 10.5821 27.139 10.4451 27.276C10.3081 27.4131 10.2311 27.599 10.2311 27.7928C10.2311 27.9866 10.3081 28.1724 10.4451 28.3095C10.5821 28.4465 10.768 28.5235 10.9618 28.5235H13.8848C14.0786 28.5235 14.2645 28.4465 14.4015 28.3095C14.5386 28.1724 14.6155 27.9866 14.6155 27.7928C14.6155 27.599 14.5386 27.4131 14.4015 27.276C14.2645 27.139 14.0786 27.062 13.8848 27.062H10.9618Z" fill="white"/>
<path d="M24.173 26.9236C24.267 27.3779 24.4676 27.8033 24.7584 28.1648C25.0492 28.5263 25.4218 28.8134 25.8454 29.0025C26.2691 29.1915 26.7316 29.2771 27.1949 29.2522C27.6581 29.2272 28.1088 29.0924 28.5097 28.8589C28.6176 28.7958 28.7405 28.7625 28.8655 28.7627C28.9906 28.7628 29.1133 28.7963 29.2211 28.8597C29.6656 29.1196 30.1714 29.2561 30.6862 29.255C30.871 29.2549 31.0554 29.2381 31.2371 29.205C31.8074 29.0999 32.3332 28.8264 32.7467 28.4198C33.1602 28.0132 33.4425 27.4921 33.5571 26.9236V26.9232C33.6711 26.3671 33.621 25.7899 33.4128 25.2618C33.2045 24.7337 32.8472 24.2775 32.3844 23.9489C31.9215 23.6203 31.373 23.4334 30.8058 23.4109C30.2386 23.3885 29.6771 23.5315 29.1897 23.8225C29.0915 23.8807 28.9795 23.9113 28.8654 23.9113C28.7513 23.9113 28.6392 23.8807 28.541 23.8225C28.0536 23.5309 27.4919 23.3874 26.9243 23.4096C26.3568 23.4318 25.8079 23.6187 25.3448 23.9475C24.8817 24.2764 24.5243 24.7329 24.3162 25.2614C24.1081 25.7899 24.0584 26.3676 24.173 26.9239V26.9236ZM25.9078 25.4029C26.1345 25.1385 26.4461 24.9613 26.7892 24.9015C27.1323 24.8417 27.4855 24.9032 27.7882 25.0754C28.1136 25.2708 28.4859 25.374 28.8654 25.374C29.2449 25.374 29.6173 25.2708 29.9426 25.0754C30.2453 24.9035 30.5983 24.8422 30.9412 24.9019C31.2841 24.9617 31.5956 25.1388 31.8223 25.4029C32.0401 25.6678 32.1579 26.0007 32.1552 26.3437C32.1525 26.6866 32.0293 27.0176 31.8073 27.279C31.5853 27.5404 31.2785 27.7154 30.9406 27.7736C30.6026 27.8318 30.2549 27.7693 29.9583 27.5972C29.6266 27.4039 29.2495 27.3019 28.8655 27.3018C28.4815 27.3017 28.1044 27.4034 27.7725 27.5965C27.476 27.7688 27.1284 27.8314 26.7904 27.7734C26.4525 27.7154 26.1456 27.5405 25.9235 27.2792C25.7014 27.018 25.5781 26.687 25.5752 26.3441C25.5724 26.0012 25.6901 25.6682 25.9078 25.4032V25.4029Z" fill="white"/>
<path d="M35.2091 7.74228L31.5561 6.17658C31.283 6.06007 30.9892 6 30.6923 6C30.3954 6 30.1015 6.06007 29.8285 6.17658L26.174 7.74228C25.7797 7.91116 25.4437 8.19209 25.2076 8.55022C24.9715 8.90835 24.8457 9.32792 24.8459 9.75686V13.3906C24.851 14.9605 25.3647 16.4865 26.31 17.7398C27.2554 18.9932 28.5815 19.9064 30.0896 20.3426C30.4833 20.4549 30.9005 20.4549 31.2942 20.3426C32.8023 19.9064 34.1284 18.9932 35.0737 17.7398C36.0191 16.4865 36.5328 14.9605 36.5378 13.3906V9.75686C36.538 9.32782 36.4122 8.90817 36.176 8.55003C35.9398 8.19188 35.6035 7.911 35.2091 7.74228V7.74228ZM35.0764 13.3906C35.0724 14.643 34.6626 15.8605 33.9084 16.8604C33.1542 17.8603 32.0963 18.5889 30.8931 18.9369C30.7617 18.9754 30.6221 18.9754 30.4907 18.9369C29.2875 18.5889 28.2295 17.8603 27.4754 16.8604C26.7212 15.8605 26.3114 14.643 26.3074 13.3906V9.75686C26.3074 9.61392 26.3493 9.47411 26.428 9.35474C26.5066 9.23538 26.6185 9.1417 26.7499 9.08531L30.4043 7.51962C30.4954 7.48102 30.5933 7.46113 30.6922 7.46113C30.7912 7.46113 30.8891 7.48102 30.9802 7.51962L34.6332 9.08531C34.7647 9.1416 34.8768 9.23524 34.9555 9.35461C35.0343 9.47398 35.0763 9.61384 35.0764 9.75686V13.3906Z" fill="white"/>
</svg>
