<svg width="108" height="14" viewBox="0 0 108 14" fill="none" xmlns="http://www.w3.org/2000/svg">
<path d="M64.574 12.8659C64.1639 13.0791 63.5488 13.2124 63.6513 13.6121C63.6513 13.692 63.395 13.7187 63.2412 13.7187C62.421 13.7187 62.1134 13.5321 62.1134 13.1324C62.1134 13.0525 62.1134 12.9725 61.9084 12.9459C61.7546 12.9459 61.5495 12.9992 61.6008 12.8659C61.6008 12.786 61.7546 12.7593 61.9084 12.7593C62.2159 12.7327 62.4723 12.6794 62.3185 12.4662C62.216 12.3329 61.8058 12.253 61.3957 12.3063C61.3957 12.3329 61.3957 12.3596 61.3957 12.3596C61.5495 12.4129 61.8571 12.3596 61.9084 12.5195C61.9084 12.6261 61.6521 12.6527 61.5496 12.5994C61.3445 12.4928 60.8831 12.706 60.8831 12.4129C60.8831 12.2796 60.8831 12.173 60.7293 12.0664C60.6268 11.9598 60.4218 11.9066 60.2167 11.9066C60.0117 11.9066 59.9604 12.0131 59.8579 12.0931C59.7041 12.173 59.7554 12.6261 59.1915 12.253C59.1402 12.1997 58.9864 12.2263 58.9352 12.2796C58.7814 12.3596 58.7814 12.4662 58.8326 12.5728C58.8839 12.6527 58.9865 12.6527 59.1402 12.6261C59.6529 12.5195 60.0117 12.5728 60.2167 12.8926C60.3193 13.0791 60.6268 13.2124 60.8319 13.3989C60.5243 13.3456 60.2167 13.2657 59.9604 13.4522C59.4991 13.2923 59.4478 13.3989 59.4478 13.6121C59.4478 13.692 59.2427 13.692 59.1915 13.6121C58.9864 13.4522 58.9864 13.319 59.294 13.1591C59.3965 13.1058 59.6016 12.9992 59.4478 12.8926C59.294 12.8126 59.1402 12.8126 58.8839 12.8393C58.5251 12.8926 58.2175 13.0258 57.9612 13.1591C57.7049 13.2657 58.0125 13.2923 58.2175 13.2923C58.4738 13.2923 58.6789 13.319 58.5251 13.4788C58.5251 13.5055 58.4226 13.5588 58.4226 13.5588C58.115 13.4522 57.8074 13.3456 57.5511 13.239C57.3461 13.1591 57.3973 13.1058 57.5511 13.0258C57.7561 12.8659 57.7562 12.706 57.3973 12.5994C57.2435 12.5728 57.1923 12.4928 57.141 12.4129C56.936 12.1197 56.8847 12.1197 56.4746 12.3063C56.2696 12.3862 56.0132 12.4129 55.7569 12.4129C55.6031 12.4129 55.3981 12.4395 55.3981 12.3329C55.3469 12.253 55.5519 12.253 55.6544 12.1997C55.9107 12.0931 55.9107 12.0931 55.7057 11.8266C55.6544 12.253 54.9368 12.173 54.3729 12.4129C54.6805 12.0931 54.5779 11.9332 54.0653 11.9332C53.3476 11.9332 53.3476 12.2263 53.3476 12.4928C53.1426 12.4928 53.0913 12.4129 53.0401 12.3596C52.9888 12.2263 52.835 12.173 52.5787 12.173C52.3224 12.1997 52.2711 12.2796 52.2711 12.3862C52.2711 12.4662 52.3224 12.5728 52.1173 12.5994C51.9123 12.6261 52.0148 12.4395 51.9636 12.4662C51.7073 12.6261 51.3484 12.5195 51.0409 12.5728C50.6308 12.6527 50.8358 12.8393 50.9383 13.0791C50.2719 12.7593 49.8106 12.8393 49.503 13.1591C49.2467 12.9459 49.503 12.786 49.5543 12.6261C49.708 12.1997 49.6055 12.0931 48.7853 12.1464C48.0164 12.1997 47.2475 12.0931 46.4785 12.253C46.171 12.3063 45.9146 12.0931 45.5046 12.1464C44.6844 12.253 44.5819 12.253 44.6331 12.706C44.6331 12.7593 44.6331 12.786 44.6331 12.8393C44.1718 12.6527 44.1717 12.6261 44.3255 12.3596C44.4281 12.2263 44.3768 12.1197 44.0692 12.1197C43.5053 12.1464 42.9415 12.0131 42.4288 12.1197C42.275 12.1464 42.0188 12.1464 41.9675 12.0664C41.7112 11.7467 41.4036 11.9865 41.2498 12.0664C40.891 12.3063 40.7885 12.1464 40.7372 11.9865C40.6859 11.8533 40.6347 11.72 40.3271 11.6934C40.1733 11.7467 40.2246 11.8266 40.1733 11.8799C40.0195 12.1197 39.917 12.4129 39.3019 12.1197C39.1481 12.0398 38.9943 12.0931 38.8405 12.173C38.1741 12.4662 37.5077 12.4129 36.7388 12.2796C36.2774 12.1997 35.7648 12.0664 35.2522 12.253C35.0471 12.3329 34.7908 12.2796 34.637 12.1464C34.5345 12.0664 34.4833 11.9598 34.2269 11.9332C34.2269 11.9598 34.1757 12.0131 34.2269 12.0398C34.2782 12.1464 34.5345 12.2796 34.2782 12.3329C34.0732 12.3862 33.8168 12.2796 33.7143 12.173C33.5605 12.0131 33.5093 12.0398 33.253 12.1197C33.0479 12.1997 32.6378 12.3329 32.484 12.173C32.3303 12.0131 32.3302 11.7467 32.7916 11.6401C32.9967 11.5868 33.458 11.6134 33.3555 11.4002C33.3042 11.2137 32.9454 11.1604 32.6378 11.1071C32.1765 11.0271 31.7664 11.0005 31.4075 11.187C31.0487 11.3736 30.5361 11.267 30.126 11.2403C29.3058 11.2403 28.5369 11.267 27.7167 11.267C27.4604 11.267 27.1528 11.267 26.9477 11.267C26.2301 11.2936 25.4612 11.2936 24.7948 11.4535C24.6922 11.4802 24.641 11.5335 24.6922 11.5868C24.7435 11.6667 24.8973 11.72 25.0511 11.72C25.7687 11.6667 26.5377 11.8266 27.2553 11.6134C27.7679 11.4802 28.3831 11.6134 28.947 11.5868C29.2033 11.5868 29.3571 11.7467 29.4596 11.8533C29.5621 11.9065 29.5621 11.9865 29.4083 12.0131C29.2545 12.0398 29.152 12.0398 29.1008 11.9598C28.947 11.7467 28.7932 11.72 28.5369 11.9066C28.4856 11.9332 28.3318 11.9598 28.3318 11.9332C27.7679 11.7467 27.5629 11.9332 27.2553 12.1197C26.6914 12.4395 26.794 11.9865 26.4864 11.9066C26.3326 12.0931 26.1788 12.2796 25.8712 12.3862C25.7687 12.4395 25.6149 12.4928 25.4612 12.4662C25.3586 12.4395 25.3074 12.3862 25.3586 12.3596C25.5124 12.0931 25.3586 12.0664 24.9485 12.173C24.846 12.1997 24.7435 12.173 24.6922 12.0931C24.9998 11.8 24.5384 11.3469 23.9233 11.4002C23.2569 11.4535 22.4367 11.3736 22.0266 11.8533C21.8728 12.0131 21.4115 12.1197 21.3602 12.3862C21.3602 12.4928 21.1552 12.5994 20.8988 12.5728C20.54 12.4928 20.8988 12.4395 20.9501 12.3596C21.0014 12.2263 20.8476 12.2263 20.6425 12.1997C20.4375 12.1997 20.335 12.1197 20.2837 12.0398C20.2324 11.9599 20.335 11.8799 20.54 11.8799C20.7451 11.8533 20.9501 11.8799 20.9501 11.72C20.9501 11.6401 20.8476 11.5868 20.6938 11.5868C20.4375 11.5868 20.1299 11.5335 19.9761 11.6667C19.9249 11.7733 19.9761 11.8533 19.6686 11.8C19.4635 11.7733 19.4635 11.8799 19.4635 11.9598C19.4635 12.0931 19.4635 12.2263 19.7711 12.253C19.9761 12.2796 20.2324 12.3063 20.1299 12.4395C20.0274 12.5994 19.6173 12.5994 19.361 12.6794C19.2072 12.7327 19.0021 12.6794 18.9509 12.5728C18.8996 12.4129 18.6433 12.2796 18.7458 12.1197C18.7971 12.0131 18.7458 11.9598 18.5408 11.9332C18.4383 11.9065 18.2845 11.8799 18.182 11.9598C18.0794 12.0398 18.2332 12.1197 18.2845 12.173C18.3357 12.253 18.387 12.3063 18.4895 12.3862C18.5408 12.4662 18.4895 12.5728 18.3358 12.5195C18.0282 12.3862 17.5668 12.5195 17.3105 12.3063C17.208 12.1997 17.1055 12.2263 16.9517 12.3063C16.8491 12.3596 16.6441 12.4129 16.9004 12.4662C17.0029 12.4928 17.1055 12.5195 17.0029 12.5994C16.9517 12.6261 16.7979 12.6527 16.7466 12.6261C16.234 12.3596 15.6701 12.5994 15.1575 12.5994C14.7474 12.5994 14.286 12.4129 13.8247 12.6527C13.7222 12.706 13.1583 12.5195 12.8507 12.4129C12.7482 12.3862 12.7995 12.253 13.0045 12.2263H13.0558C14.0297 12.5195 14.3373 12.0664 14.8499 11.7467C14.9012 12.0931 15.4138 12.1464 15.8239 12.2796C16.1315 12.3862 16.3365 12.1997 16.5928 12.1197C16.6954 12.0664 16.7466 11.9598 16.6954 11.9598C16.2853 11.9865 16.1828 11.72 15.7727 11.7467C15.0037 11.7733 14.2348 11.6134 13.6196 11.9865C13.4659 12.0664 13.3121 12.0131 13.1583 11.9598C12.8507 11.8266 12.3894 11.8266 12.1331 11.9066C11.6204 12.0931 11.1078 12.0931 10.5439 12.0398C9.82627 11.9599 9.15986 12.0664 8.44219 12.0931C8.18588 12.0931 7.77579 12.1997 7.92957 11.8799C7.98083 11.8 7.82705 11.7467 7.67326 11.6934C7.46822 11.6401 7.3657 11.5601 7.31444 11.4802C7.10939 11.2403 7.3657 10.8406 6.54551 10.8139C6.64803 10.4142 5.87911 10.4675 5.52027 10.3343C5.00765 10.1477 4.80261 10.0145 5.05892 9.69467C5.16144 9.56143 5.26396 9.42818 5.26396 9.26828C5.26396 9.13504 5.16143 9.05509 4.90512 9.02844C4.3925 8.9485 3.98242 8.81525 4.03368 8.44216C4.08494 8.22897 3.7261 8.20232 3.36727 8.22897C3.16222 8.22897 2.85465 8.25562 2.85465 8.12237C2.85465 7.96248 3.16222 7.96248 3.41853 7.98913C3.62358 7.98913 3.87988 8.06907 3.82862 7.90918C3.82862 7.74928 3.46979 7.77593 3.316 7.80258C2.80338 7.85588 2.34204 8.04243 1.72689 8.01578C1.52185 8.01578 1.21427 7.98913 1.31679 7.88253C1.72688 7.58939 0.906694 7.4295 1.06048 7.18965C1.11174 7.10971 0.906703 7.02976 0.701656 7.02976C0.445346 7.02976 0.496602 6.92316 0.599126 6.86986C1.06048 6.60337 0.650391 6.36353 0.394081 6.17699C0.189033 6.04374 0.189033 5.99044 0.394081 5.88385C0.752914 5.72395 1.06048 5.56406 0.752905 5.24427C0.599119 5.08437 1.11174 4.92448 1.26552 4.76458C1.31679 4.71128 1.41931 4.71128 1.31679 4.60469C1.06048 4.39149 0.701643 4.20495 1.00921 3.91181C1.00921 3.88516 1.00923 3.83186 0.957965 3.83186C0.189036 3.64532 0.547864 3.16564 0.0865065 2.89914C-0.0672793 2.8192 -0.0160236 2.7126 0.240286 2.7126C1.21426 2.6593 1.93194 2.28621 2.90591 2.23292C3.7261 2.17962 4.54629 2.15297 5.36648 2.25956C5.62279 2.28621 5.87911 2.31286 6.08416 2.20626C6.2892 2.12632 6.59677 2.09967 6.69929 2.12632C7.46822 2.44611 8.23714 2.07302 8.95481 2.15297C10.1338 2.25956 11.3129 2.20627 12.4406 2.15297C13.9785 2.07302 15.5163 2.07302 17.0542 2.04637C18.1307 2.01972 19.2585 1.93977 20.335 1.91312C21.9753 1.83318 23.5645 1.69993 25.2048 1.67328C27.6142 1.61998 29.9722 1.51339 32.3815 1.43344C33.6631 1.38014 34.9446 1.3002 36.2262 1.3002C37.764 1.3002 39.3019 1.16695 40.891 1.1936C42.07 1.1936 43.3003 1.087 44.4793 1.06035C45.6071 1.0337 46.7348 1.00705 47.9139 0.980405C48.8878 0.953756 49.9131 0.953755 50.8871 0.873808C51.4509 0.82051 51.9636 0.873808 52.4762 0.873808C53.4502 0.847159 54.4241 0.660615 55.3468 0.740562C56.8334 0.900457 58.32 0.580668 59.8066 0.740562C60.0629 0.767211 60.3193 0.740563 60.5756 0.713914C61.6008 0.474071 62.6773 0.660616 63.7025 0.687265C63.9588 0.687265 64.1639 0.740564 64.4715 0.633967C64.7278 0.55402 65.1379 0.474072 65.3942 0.52737C65.9581 0.633967 66.5219 0.474072 67.0346 0.554019C67.906 0.687265 68.8287 0.420773 69.7002 0.607317C69.8027 0.633966 69.9052 0.580668 70.0078 0.554019C70.5204 0.394124 71.0842 0.447422 71.6481 0.474071C72.2633 0.527369 72.8272 0.713913 73.4936 0.474071C73.7499 0.394124 74.2625 0.474073 74.6213 0.500722C75.7491 0.55402 76.8256 0.633966 77.9534 0.474071C78.2609 0.420773 78.5172 0.52737 78.8248 0.554019C79.1836 0.580668 79.5937 0.820511 79.9526 0.554019C79.9526 0.554019 80.0551 0.554019 80.1063 0.580668C80.8753 0.793861 81.6955 0.687266 82.4644 0.633967C83.2846 0.580669 84.1048 0.740562 84.925 0.740562C85.8989 0.713913 86.8729 0.82051 87.7956 0.847159C88.5133 0.873808 89.2822 0.767212 89.9486 0.953756C90.2562 1.0337 90.5638 0.953756 90.8201 0.953756C91.8453 0.927107 92.8706 1.0337 93.8958 1.087C95.2286 1.16695 96.5614 1.087 97.8942 1.22025C98.4581 1.27355 99.022 1.32684 99.4834 1.54004C99.5859 1.59333 99.6884 1.61998 99.8422 1.59334C100.662 1.46009 101.534 1.56669 102.303 1.59334C103.379 1.64663 104.507 1.67328 105.584 1.69993C106.045 1.69993 106.301 1.88648 106.301 2.09967C106.352 2.52606 106.352 2.92579 106.968 3.27223C107.07 3.32553 107.121 3.45877 107.07 3.53872C106.916 3.80521 107.121 4.04506 107.378 4.25825C107.685 4.52474 107.429 4.65799 107.019 4.76458C105.891 5.05772 104.712 5.13767 103.431 5.00442C102.149 4.87118 100.867 4.89783 99.5859 4.89783C99.0732 4.89783 98.7144 5.03107 98.8682 5.35086C99.022 5.67065 98.8682 6.01709 99.5346 6.25693C99.7397 6.33688 99.5346 6.52343 99.4834 6.63002C99.3808 6.81657 99.4321 6.92316 99.8422 7.00311C100.56 7.163 101.226 7.40285 102.098 7.29625C102.405 7.2696 102.61 7.29625 102.405 7.53609C102.149 7.74928 102.662 7.88253 102.867 7.93583C103.482 8.06907 103.225 8.20232 102.969 8.36222C102.61 8.57541 102.662 8.76195 103.123 8.8419C103.482 8.8952 103.379 9.02844 103.174 9.08174C102.508 9.21499 102.662 9.34823 103.072 9.53478C103.123 9.56143 103.123 9.66802 103.123 9.72132C103.123 9.77462 103.174 9.85457 103.277 9.85457C103.892 9.77462 103.994 10.1477 104.302 10.201C104.917 10.3076 105.327 10.5741 105.84 10.7073C106.352 10.8672 106.404 10.8406 106.455 10.4675C106.404 10.4675 106.352 10.4408 106.352 10.4408C106.199 10.4675 106.045 10.654 105.84 10.4941C105.686 10.3876 105.84 10.3076 105.994 10.281C106.25 10.201 106.506 10.201 106.763 10.3343C106.916 10.4408 106.763 10.5474 106.814 10.654C107.121 10.7073 107.121 10.4941 107.378 10.5208C107.531 10.654 107.429 10.8139 107.326 10.9472C107.224 11.0804 107.121 11.1604 107.326 11.2936C107.378 11.3203 107.429 11.3736 107.429 11.3736C106.763 11.72 107.634 11.7733 107.839 11.9332C107.89 11.9598 107.993 11.9865 107.993 12.0398C108.095 12.2796 107.07 13.1324 106.711 13.1058C106.25 13.0525 105.737 13.239 105.276 13.0258C104.968 12.8659 104.456 12.8926 104.097 12.9992C103.379 13.239 102.918 13.0525 102.508 12.8126C102.457 12.786 102.405 12.786 102.354 12.7593C102.405 13.1857 102.405 13.1857 101.329 13.2124C101.739 12.9459 101.636 12.8659 100.97 12.7593C100.304 12.6527 99.7397 12.706 99.1758 12.8659C99.022 12.9192 98.9195 12.9192 98.8169 12.8393C98.4581 12.5994 97.9455 12.6527 97.4841 12.6527C97.2791 12.6527 97.1253 12.6527 96.9203 12.5994C96.7152 12.5195 96.4589 12.3063 96.3564 12.4129C96.2538 12.5728 95.5874 12.6261 95.9975 12.8926C96.0488 12.9192 95.69 13.1324 95.4337 13.2124C95.2799 13.2657 95.2286 13.1324 95.1773 13.0525C95.1261 12.8926 94.9723 12.8126 94.716 12.7593C94.6647 12.7593 94.5109 12.786 94.4597 12.8393C94.2546 13.0258 94.6647 13.0525 94.7673 13.1857C94.5109 13.2657 94.3571 13.2124 94.2034 13.1324C93.4857 12.786 92.8193 12.5195 91.7428 12.7327C91.5378 12.7593 91.1277 12.5195 90.8201 12.3862C90.7176 12.4928 90.8713 12.5994 90.8713 12.706C90.9739 13.0791 90.41 13.319 89.7436 13.1857C89.436 13.1324 89.231 13.239 88.9747 13.2657C88.6158 13.2923 88.3083 13.2923 88.3595 13.0258C88.3595 12.9192 88.462 12.786 88.1545 12.8126C87.8982 12.8393 87.4881 12.786 87.5393 13.0525C87.5393 13.1324 87.6931 13.2923 87.3343 13.239C87.1805 13.2124 86.8216 13.1324 87.0267 12.9992C87.4881 12.706 87.1292 12.5728 86.6679 12.4395C86.5141 12.3862 86.4116 12.253 86.1553 12.253C86.0015 12.3063 86.0527 12.3862 86.1553 12.3862C86.7704 12.5994 86.5654 12.8926 86.4628 13.1324C86.3603 13.4256 85.899 13.319 85.5401 13.319C85.13 13.319 85.2838 13.2124 85.3863 13.0791C85.4889 12.9459 85.3351 12.7593 85.4888 12.6261C85.4888 12.5994 85.4888 12.5728 85.4888 12.5728C85.4376 12.4395 84.156 12.0931 83.8997 12.1464C83.7972 12.173 83.7459 12.1997 83.6947 12.253C83.4896 12.4662 83.2333 12.4395 83.0283 12.2796C82.772 12.0664 82.4131 12.0131 82.003 12.0664C81.8493 12.0931 81.6442 12.0931 81.4904 12.0664C81.2854 12.0398 81.0803 12.0131 81.1316 12.1997C81.1316 12.2796 81.1316 12.3862 80.9265 12.3596C80.7215 12.3596 80.7215 12.253 80.7215 12.173C80.7215 12.1197 80.6702 12.0398 80.6189 12.0131C80.4139 11.9332 80.2601 11.5601 79.85 11.9598C79.6962 12.0931 79.2862 12.1464 79.1324 12.3329C79.0811 12.4129 78.9273 12.3329 78.8248 12.3063C78.7223 12.253 78.5685 12.2263 78.7735 12.1197C78.9786 12.0131 79.1324 11.8533 79.0811 11.6134C78.8248 11.8799 78.3122 11.8533 78.0046 12.0398C77.7996 12.173 77.492 12.0931 77.2357 12.0664C77.0819 12.0398 76.9281 12.0131 76.8256 12.1197C76.7743 12.1464 76.7743 12.1997 76.8256 12.253C76.9281 12.3329 77.0819 12.3063 77.2357 12.2796C77.9533 12.0931 78.2097 12.5195 78.7223 12.5994C78.466 12.8926 78.9786 13.1058 79.0811 13.3456C79.1836 13.5055 78.8248 13.3723 78.7223 13.4522C78.5685 13.5321 78.4147 13.5321 78.4147 13.4256C78.4147 13.2657 78.1584 13.1591 78.0559 13.0258C78.0046 12.9459 77.9533 12.8926 77.7996 12.9192C77.6458 12.9459 77.6458 12.9992 77.6458 13.0791C77.697 13.1857 77.5433 13.2657 77.6971 13.3723C77.8508 13.4789 77.7483 13.5321 77.5432 13.5588C77.3382 13.5588 77.2357 13.5055 77.2357 13.3989C77.2357 13.3456 77.2869 13.2923 77.2869 13.239C77.2357 13.0525 77.1844 12.9192 76.6718 12.9459C76.1079 12.9992 75.6978 12.8393 75.4415 12.5728C75.7491 12.6527 76.0054 12.6261 76.1592 12.4928C76.313 12.3596 76.4155 12.253 76.2104 12.0931C76.0054 11.9332 75.9541 11.72 75.9541 11.5068C75.9541 11.4002 75.9541 11.2936 75.6978 11.2403C75.544 11.6134 75.0827 11.9598 75.6978 12.3063C75.2877 12.3063 75.1339 12.2263 74.9801 11.9598C74.8776 11.8533 75.1339 11.6667 74.8264 11.6401C74.5701 11.6134 74.16 11.6401 73.9549 11.72C73.6986 11.8532 73.1347 11.7467 73.0322 12.0398C72.9809 12.173 72.7246 12.0131 72.5709 11.9598C72.3146 11.8533 72.1608 11.8 71.9557 12.0131C71.8532 12.1464 71.4431 12.2263 71.1355 12.3329C70.9817 12.1997 71.3406 12.1464 71.1868 12.0398C71.033 11.9599 70.8792 12.0398 70.7254 12.0664C70.3153 12.1197 69.9565 11.9865 69.5464 12.0131C69.9565 11.9598 69.7002 11.7467 69.9565 11.6401C70.0077 11.6134 69.9052 11.5068 69.8027 11.4802C69.6489 11.4269 69.5977 11.5068 69.4951 11.5601C69.0338 11.8533 68.3161 11.9598 67.701 11.8C67.4447 11.7467 67.3421 11.8266 67.1884 11.8533C66.9321 11.9065 66.6245 11.9332 66.3169 11.9865C66.1118 12.0131 65.8555 12.0664 65.9068 12.1464C65.7018 12.5994 65.0353 12.706 64.574 12.8659ZM63.0874 6.76327C62.9849 6.68332 62.8311 6.65667 62.6773 6.68332C62.0109 6.73662 61.3445 6.65667 60.6781 6.68332C60.1142 6.70997 59.5503 6.55007 59.089 6.57672C57.9099 6.63002 56.7822 6.55007 55.6031 6.55007C54.8855 6.57672 54.2191 6.41683 53.5014 6.47013C52.9375 6.52342 52.3737 6.52343 51.8098 6.52343C49.9131 6.55007 47.9651 6.47013 46.0684 6.44348C45.402 6.44348 44.6844 6.52343 44.018 6.49678C42.8902 6.44348 41.7624 6.52343 40.5834 6.52343C39.9683 6.52343 39.4044 6.44348 38.7892 6.47013C37.0976 6.55007 35.4572 6.60337 33.7656 6.60337C32.6378 6.60337 31.5613 6.49678 30.4336 6.55007C28.3318 6.65667 26.2301 6.65667 24.1283 6.68332C23.7695 6.68332 23.3594 6.68332 23.0518 6.76327C22.2829 6.89651 21.514 6.86986 20.7451 6.89651C20.1299 6.89651 19.4635 6.86986 18.8484 6.92316C18.0794 7.00311 17.2592 7.02976 16.4391 7.05641C15.8239 7.08306 15.1575 7.08306 14.5424 7.13635C13.5171 7.2163 12.4919 7.50944 11.4154 7.29625C11.3129 7.2696 11.1078 7.3229 11.0053 7.34955C10.0826 7.56274 9.10861 7.4295 8.13463 7.50944C8.03211 7.50944 7.92958 7.50944 7.87832 7.48279C7.51949 7.2696 7.16066 7.4295 6.85309 7.50944C6.64804 7.56274 6.44298 7.61604 6.49425 7.74929C6.54551 7.88253 6.75055 7.93583 6.9556 7.93583C7.57074 7.90918 8.33968 8.20232 8.8523 7.80258C8.8523 7.77593 8.95481 7.77593 8.95481 7.77593C9.67248 7.74928 10.3902 7.72264 11.1078 7.69599C11.7742 7.64269 12.3894 7.93583 13.107 7.74929C13.1583 7.74929 13.2096 7.77593 13.3121 7.77593C13.6196 7.82923 13.9272 7.77593 14.2861 7.74929C15.6189 7.66934 16.9004 7.40285 18.2332 7.69599C18.4383 7.74929 18.5408 7.66934 18.6946 7.64269C19.361 7.50944 19.7198 7.56274 20.1812 7.90918C20.2837 7.45614 20.8476 7.56274 21.3602 7.56274C21.719 7.56274 22.0779 7.50944 22.4367 7.48279C23.4107 7.3762 24.3846 7.3229 25.3586 7.64269C25.0511 7.2163 25.7687 7.50944 25.9225 7.3229C25.9738 7.50944 25.5124 7.53609 25.7687 7.66934C25.9738 7.77593 26.1788 7.66934 26.4351 7.64269C26.8965 7.56274 27.3578 7.3229 27.8192 7.64269C27.8705 7.69599 28.0755 7.69599 28.1268 7.66934C28.2293 7.42949 28.3831 7.29625 28.8444 7.53609C28.8957 7.56274 28.9982 7.48279 29.0495 7.4295C29.152 7.34955 29.3058 7.29625 29.5108 7.3229C30.5361 7.40285 31.5101 7.3229 32.484 7.24295C32.7404 7.2163 32.9967 7.2163 33.253 7.2163C33.1504 7.4295 32.5353 7.34955 32.6891 7.66934C32.9967 7.40285 33.5093 7.48279 33.9706 7.4295C35.0984 7.2696 36.1749 7.05641 37.4052 7.13635C37.9691 7.163 38.5329 7.00311 39.0968 7.18965C39.1481 7.2163 39.2506 7.18965 39.3019 7.163C40.1733 6.94981 41.096 7.13636 41.9675 7.02976C42.07 7.00311 42.2238 7.00311 42.2751 7.02976C42.6339 7.18965 42.9415 7.163 43.4541 7.10971C44.1717 7.02976 44.992 6.94981 45.8121 7.02976C46.1197 7.05641 46.376 7.18965 46.6836 7.18965C46.9912 7.18965 47.7601 7.13636 47.9651 7.18965C48.1189 7.2163 48.2727 7.24295 48.2215 7.10971C48.2215 7.00311 48.3752 7.00311 48.4778 7.02976C48.7341 7.08306 48.9904 7.00311 49.2467 7.00311C49.7593 6.97646 50.3232 6.92316 50.8358 7.00311C50.9383 7.02976 51.1434 6.97646 51.0409 7.10971C50.9896 7.2163 50.9896 7.2696 51.1946 7.2696C51.3484 7.2696 51.4509 7.2696 51.5022 7.18965C51.7072 6.94981 52.1173 6.92316 52.5274 6.94981C53.6039 7.02976 54.7317 7.05641 55.8082 6.97646C55.9107 6.97646 56.0645 7.00311 56.1671 7.02976C56.2696 7.08306 56.3721 7.08306 56.4746 7.02976C57.2435 6.73662 58.0637 7.02976 58.8839 6.94981C59.1915 6.92316 59.5503 7.05641 59.8579 6.92316C60.0117 6.86986 60.2167 6.89651 60.4218 6.94981C61.2932 7.02976 62.2672 7.13636 63.0874 6.76327ZM78.8248 10.5208C79.1324 10.734 79.4912 10.7873 79.7988 10.6807C80.2601 10.4941 80.7215 10.3609 81.2854 10.5208C81.4392 10.5741 81.5929 10.5208 81.6442 10.4142C81.6955 10.3076 81.6442 10.2277 81.3879 10.2277C81.1316 10.2277 80.8753 10.2277 80.6189 10.201C80.3114 10.1744 80.0551 10.1477 79.9526 10.3609C79.9013 10.4675 79.6963 10.5208 79.4912 10.3876C79.0299 10.1744 78.3634 10.1211 77.8508 10.1744C77.2357 10.2277 76.6205 10.4941 75.9541 10.2277C75.8516 10.201 75.7491 10.2277 75.6466 10.2277C74.6213 10.1744 73.5961 10.4142 72.5196 10.2277C72.3658 10.201 72.1607 10.201 72.1607 10.3076C72.1095 10.3875 72.2633 10.4941 72.3658 10.4941C73.0322 10.5474 73.186 10.7606 72.9809 11.1071C73.4423 10.734 74.365 10.6007 74.7238 10.7873C75.2365 11.0804 76.0054 10.6007 76.2617 11.0005C76.313 10.9738 76.4155 10.9472 76.4668 10.9205C76.6205 10.8672 76.7743 10.7873 76.9281 10.734C77.287 10.6274 77.697 10.4941 78.0559 10.654C78.6197 10.8939 78.7223 10.7873 78.8248 10.5208ZM50.0156 10.4941C49.7593 10.4941 49.5543 10.4675 49.2979 10.4675C49.0929 10.4675 48.8879 10.5208 48.8879 10.6274C48.8879 10.8139 49.1442 10.9738 49.4005 11.0804C49.6568 11.187 49.8106 11.0271 50.0156 10.9738C50.682 10.7606 51.861 10.8672 52.1686 11.2137C52.2199 11.2936 52.2199 11.4269 52.4762 11.3736C52.6812 11.3469 52.6812 11.2137 52.63 11.1337C52.5274 10.9472 52.63 10.9472 52.9888 10.9205C53.604 10.8672 54.2704 10.9738 54.8855 10.7873C55.0393 10.734 55.2956 10.7873 55.2443 10.654C55.2443 10.5208 54.988 10.4675 54.8342 10.5208C54.3729 10.6007 54.014 10.4941 53.7065 10.3876C53.3989 10.3076 53.1426 10.3076 52.8863 10.3609C51.9636 10.6007 50.9896 10.4408 50.0156 10.4941ZM58.3713 11.187C58.5764 11.1337 58.7814 11.0804 58.9352 11.0271C59.5503 10.8139 60.9857 10.734 61.7033 10.8672C62.1134 10.9472 62.626 10.9205 62.9849 10.8139C63.395 10.7073 62.7286 10.654 62.7798 10.5208C62.7798 10.4675 63.0874 10.3076 62.7286 10.3076C61.8571 10.3343 60.9344 10.201 60.0629 10.4142C59.9092 10.4675 59.6528 10.5474 59.6016 10.3876C59.5503 10.0678 59.1402 10.201 58.8839 10.2277C58.5251 10.281 58.6276 10.4408 58.7814 10.5741C59.0377 10.7873 58.9352 10.9205 58.5251 11.0005C58.4226 11.0271 58.3713 11.0804 58.3713 11.187ZM72.0582 10.654C71.7507 10.6274 71.5456 10.5208 71.3918 10.4941C70.8792 10.4142 70.3666 10.2277 69.854 10.3343C69.2901 10.4408 68.7775 10.4408 68.3161 10.281C68.0598 10.201 67.9573 10.3076 67.8035 10.3609C67.6497 10.4408 67.6497 10.5474 67.8035 10.6007C68.0598 10.6807 68.2649 10.8139 68.6237 10.7606C69.3926 10.654 70.1615 10.7073 70.8792 10.8139C71.2893 10.8406 71.6481 10.8139 72.0582 10.654ZM34.7396 11.0271C34.4833 11.0005 34.1757 11.0804 34.0219 11.187C33.9194 11.2936 34.1757 11.3736 34.3295 11.4535C34.4832 11.5335 34.637 11.5335 34.7908 11.4535C34.9446 11.3736 35.0984 11.3203 35.3547 11.3469C36.1236 11.4002 36.8413 11.2403 37.6102 11.187C37.764 11.187 37.8665 11.1337 37.8665 11.0538C37.8665 10.9472 37.764 10.9472 37.6102 10.9472C37.3539 10.9205 37.0463 10.8939 36.79 10.9738C36.2262 11.1337 35.4572 10.734 34.9446 11.1071C34.9959 11.0804 34.8421 11.0538 34.7396 11.0271ZM56.5259 10.8406C56.6796 10.8672 56.8847 10.8672 56.936 10.7873C57.1923 10.3343 57.4486 10.7073 57.7049 10.7873C57.8587 10.8139 57.91 10.9738 58.115 10.8939C58.4226 10.7873 58.32 10.654 58.2688 10.4941C58.2175 10.3609 58.0637 10.281 57.9099 10.3076C57.4486 10.4142 56.936 10.3609 56.4746 10.4408C56.2696 10.4675 56.0132 10.5208 56.0132 10.654C56.0132 10.7873 56.3208 10.8139 56.5259 10.8406Z" fill="#229E57"/>
</svg>
