<svg width="38" height="38" viewBox="0 0 38 38" fill="none" xmlns="http://www.w3.org/2000/svg">
<g clip-path="url(#clip0_112_888)">
<path d="M30.7339 13.8705H28.373L29.0843 5.70327C29.0856 5.68847 29.0858 5.6739 29.0859 5.65932C29.0859 5.65808 29.0861 5.65691 29.0861 5.65566C29.0861 5.65544 29.0861 5.65529 29.0861 5.65507C29.0861 5.43278 28.9519 5.23686 28.7548 5.15168C28.7532 5.15095 28.7516 5.15007 28.7499 5.14934C28.7376 5.14421 28.725 5.13981 28.7122 5.13557C28.7075 5.13403 28.7029 5.13212 28.6982 5.13066C28.6878 5.12751 28.6771 5.12502 28.6664 5.12246C28.659 5.1207 28.6518 5.11857 28.6443 5.11711C28.635 5.11528 28.6253 5.11411 28.6158 5.11271C28.6068 5.1114 28.598 5.10986 28.589 5.10905C28.5875 5.10891 28.5861 5.10861 28.5846 5.10847C28.5749 5.10759 28.5654 5.10773 28.5558 5.10737C28.5493 5.10715 28.543 5.10641 28.5366 5.10641H28.5297C28.5291 5.10641 28.5285 5.10641 28.528 5.10641H17.2947C16.9915 5.10641 16.7454 5.35251 16.7454 5.65573C16.7454 5.95822 16.9915 6.20505 17.2947 6.20505H27.9378L26.8446 18.757C26.8445 18.7579 26.8445 18.7589 26.8443 18.7598L26.5685 21.9269H7.48084L7.8001 18.6312H11.4345C11.7379 18.6312 11.9838 18.3852 11.9838 18.0818C11.9838 17.7785 11.7379 17.5325 11.4345 17.5325H7.9066L8.58072 10.5748H14.365C14.6685 10.5748 14.9144 10.3289 14.9144 10.0255C14.9144 9.72216 14.6685 9.47621 14.365 9.47621H8.68722L9.00421 6.20505H15.0975C15.4 6.20505 15.6468 5.95822 15.6468 5.65573C15.6468 5.35251 15.4 5.10641 15.0975 5.10641H8.50565C8.50535 5.10641 8.50513 5.10649 8.50484 5.10649C8.24681 5.10641 8.02298 5.28806 7.96885 5.53986C7.96849 5.5417 7.96783 5.54345 7.96746 5.54528C7.96468 5.55898 7.96285 5.57297 7.96102 5.58703C7.9605 5.5915 7.95955 5.59575 7.95911 5.60022C7.95904 5.60109 7.95882 5.6019 7.95875 5.60278L7.58345 9.47621H0.924319C0.620875 9.47621 0.375 9.72216 0.375 10.0255C0.375 10.3289 0.620875 10.5748 0.924319 10.5748H7.47696L6.80283 17.5325H4.84294C4.53949 17.5325 4.29362 17.7785 4.29362 18.0818C4.29362 18.3852 4.53949 18.6312 4.84294 18.6312H6.69641L6.32932 22.4193C6.32925 22.4199 6.32925 22.4205 6.32917 22.421L5.76162 28.2789C5.76154 28.2795 5.76147 28.2803 5.7614 28.2808L5.76118 28.283C5.76045 28.2906 5.76052 28.2981 5.76008 28.3057C5.75957 28.3158 5.75854 28.3257 5.75854 28.3359C5.75854 28.3364 5.75861 28.3368 5.75861 28.3373C5.75861 28.3515 5.75964 28.3654 5.76067 28.3793C5.76111 28.3838 5.76096 28.3883 5.76147 28.3927C5.76294 28.4069 5.76535 28.4209 5.76792 28.4348C5.76865 28.4389 5.76902 28.4431 5.76982 28.4471C5.77195 28.4577 5.77495 28.4678 5.77773 28.4782C5.77964 28.4854 5.78117 28.4928 5.78337 28.4999C5.78403 28.5019 5.78491 28.5038 5.7855 28.5058C5.81208 28.5876 5.8572 28.661 5.91609 28.7209C5.91719 28.722 5.91806 28.7232 5.91916 28.7243C5.92502 28.7301 5.93139 28.7354 5.93755 28.741C5.97541 28.7757 6.01819 28.8051 6.06499 28.8282C6.07473 28.833 6.08432 28.8381 6.09429 28.8423C6.09729 28.8436 6.10051 28.8444 6.10359 28.8456C6.11736 28.8511 6.1312 28.8564 6.14548 28.8609C6.1468 28.8612 6.14805 28.8614 6.14936 28.8619C6.16562 28.8667 6.18203 28.871 6.1988 28.8744C6.201 28.8748 6.20327 28.875 6.20539 28.8754C6.22136 28.8784 6.2374 28.881 6.25373 28.8826C6.2541 28.8826 6.25439 28.8827 6.25476 28.8828C6.27278 28.8845 6.29065 28.8854 6.30837 28.8854C6.30859 28.8854 6.30889 28.8853 6.30918 28.8853H8.7546C9.02464 30.9327 10.7799 32.5184 12.8999 32.5184C15.0198 32.5184 16.775 30.9327 17.0451 28.8853H25.8561C26.1262 30.9327 27.8814 32.5184 30.0013 32.5184C32.1211 32.5184 33.8765 30.9327 34.1467 28.8853H36.5927C36.593 28.8853 36.5935 28.8854 36.5938 28.8854C36.6122 28.8854 36.6302 28.8843 36.648 28.8825C36.6513 28.8822 36.6543 28.8816 36.6576 28.8812C36.6718 28.8795 36.6861 28.8776 36.7 28.8748C36.706 28.8736 36.7118 28.872 36.7177 28.8706C36.7285 28.8681 36.7393 28.8655 36.7499 28.8623C36.757 28.8602 36.764 28.8577 36.771 28.8553C36.78 28.8522 36.789 28.849 36.7979 28.8454C36.8055 28.8424 36.8128 28.8391 36.8202 28.8358C36.8282 28.8321 36.8363 28.8283 36.8441 28.8242C36.8516 28.8204 36.8588 28.8165 36.8659 28.8124C36.8735 28.808 36.881 28.8034 36.8884 28.7987C36.8952 28.7944 36.9021 28.7899 36.9087 28.7852C36.9162 28.78 36.9233 28.7745 36.9305 28.7689C36.9365 28.7642 36.9426 28.7595 36.9485 28.7545C36.956 28.7481 36.9631 28.7415 36.9703 28.7347C36.9753 28.7299 36.9805 28.7252 36.9853 28.7202C36.9929 28.7125 37.0002 28.7043 37.0074 28.696C37.0113 28.6915 37.0154 28.6872 37.0191 28.6827C37.0271 28.6727 37.0345 28.6624 37.0418 28.6521C37.0443 28.6485 37.0471 28.6452 37.0495 28.6415C37.0584 28.6281 37.0668 28.6143 37.0746 28.6001C37.0752 28.5992 37.0758 28.5984 37.0761 28.5975C37.0844 28.5822 37.092 28.5666 37.0989 28.5505C37.1008 28.5459 37.1022 28.5412 37.1041 28.5365C37.1085 28.5252 37.1129 28.5138 37.1167 28.502C37.1191 28.4944 37.1208 28.4866 37.1229 28.4789C37.1254 28.4697 37.1279 28.4607 37.13 28.4514C37.1318 28.4431 37.133 28.4346 37.1344 28.4262C37.1356 28.4188 37.1372 28.4115 37.1382 28.404C37.1615 28.2173 37.5916 24.7662 37.7837 22.5347C37.784 22.5326 37.784 22.5304 37.7843 22.5282C37.8396 21.8849 37.875 21.3432 37.875 21.0116C37.875 17.074 34.6715 13.8705 30.7339 13.8705ZM28.2772 14.9692H30.5245L30.2375 18.2649H27.9902L28.2772 14.9692ZM12.9 31.4197C11.1996 31.4197 9.81618 30.0362 9.81618 28.3359C9.81618 26.6355 11.1997 25.2521 12.9 25.2521C14.6004 25.2521 15.9839 26.6355 15.9839 28.3359C15.9839 30.0362 14.6004 31.4197 12.9 31.4197ZM30.0013 31.4197C28.3009 31.4197 26.9176 30.0362 26.9176 28.3359C26.9176 26.6355 28.301 25.2521 30.0013 25.2521C31.7018 25.2521 33.0852 26.6355 33.0852 28.3359C33.0852 30.0362 31.7018 31.4197 30.0013 31.4197ZM36.1073 27.7863H34.1468C33.8768 25.7388 32.1215 24.153 30.0014 24.153C27.8815 24.153 26.1262 25.7389 25.8562 27.7863H17.0453C16.7753 25.7388 15.0201 24.153 12.9 24.153C10.78 24.153 9.02464 25.7389 8.75467 27.7863H6.91306L7.37442 23.0253H27.0719V23.0256C27.0722 23.0256 27.0724 23.0256 27.0727 23.0256C27.0911 23.0256 27.1093 23.0245 27.1273 23.0227C27.1307 23.0224 27.134 23.0217 27.1374 23.0212C27.1517 23.0195 27.166 23.0175 27.1801 23.0147C27.1861 23.0135 27.1921 23.0118 27.1981 23.0103C27.2091 23.0077 27.2201 23.0051 27.2307 23.0019C27.2381 22.9997 27.245 22.9971 27.2521 22.9946C27.2614 22.9913 27.2706 22.9882 27.2795 22.9845C27.2872 22.9814 27.2946 22.9779 27.3021 22.9744C27.3102 22.9706 27.3183 22.9669 27.3262 22.9628C27.3337 22.9588 27.341 22.9546 27.3484 22.9503C27.3559 22.9459 27.3634 22.9415 27.3707 22.9368C27.3778 22.9322 27.3846 22.9273 27.3914 22.9225C27.3986 22.9174 27.4057 22.9121 27.4127 22.9066C27.419 22.9016 27.4252 22.8964 27.4314 22.891C27.4383 22.885 27.4451 22.8788 27.4517 22.8725C27.4573 22.8671 27.4629 22.8616 27.4683 22.856C27.4749 22.8491 27.4812 22.842 27.4875 22.8348C27.4924 22.829 27.4973 22.8233 27.502 22.8175C27.508 22.8098 27.5138 22.8019 27.5195 22.7939C27.5239 22.7879 27.528 22.7819 27.5321 22.7757C27.5375 22.7674 27.5426 22.759 27.5475 22.7503C27.5513 22.7439 27.5551 22.7374 27.5584 22.7308C27.563 22.7222 27.567 22.7134 27.5712 22.7045C27.5744 22.6974 27.5777 22.6905 27.5806 22.6831C27.5842 22.6745 27.5872 22.6656 27.5904 22.6568C27.5931 22.6489 27.5959 22.6411 27.5983 22.633C27.6008 22.6245 27.6027 22.6158 27.6049 22.6072C27.6071 22.5985 27.6094 22.5898 27.6111 22.581C27.6128 22.5723 27.6138 22.5635 27.6151 22.5547C27.6164 22.5457 27.618 22.5367 27.6189 22.5275C27.619 22.5262 27.6193 22.5249 27.6194 22.5236L27.8947 19.3632H30.7337C32.4168 19.3632 33.1758 20.2352 33.9794 21.1585C34.6424 21.9203 35.3827 22.7703 36.641 22.9777C36.4812 24.6674 36.2229 26.8365 36.1073 27.7863ZM36.7349 21.8768C35.9186 21.7104 35.4164 21.1366 34.808 20.4375C34.0471 19.5634 33.1181 18.4966 31.3374 18.2978L31.6216 15.035C34.534 15.4658 36.7764 17.9815 36.7764 21.0118C36.7764 21.2176 36.761 21.5168 36.7349 21.8768Z" fill="white"/>
<path d="M12.9 26.3218C11.7895 26.3218 10.8859 27.2254 10.8859 28.336C10.8859 29.4467 11.7895 30.3502 12.9 30.3502C14.0106 30.3502 14.9142 29.4467 14.9142 28.336C14.9142 27.2254 14.0106 26.3218 12.9 26.3218ZM12.9 29.2515C12.3952 29.2515 11.9845 28.8409 11.9845 28.336C11.9845 27.8311 12.3952 27.4205 12.9 27.4205C13.4049 27.4205 13.8156 27.8311 13.8156 28.336C13.8156 28.8409 13.4048 29.2515 12.9 29.2515Z" fill="white"/>
<path d="M30.0011 26.3218C28.8905 26.3218 27.9869 27.2254 27.9869 28.336C27.9869 29.4467 28.8905 30.3502 30.0011 30.3502C31.1117 30.3502 32.0153 29.4467 32.0153 28.336C32.0153 27.2254 31.1117 26.3218 30.0011 26.3218ZM30.0011 29.2515C29.4962 29.2515 29.0856 28.8409 29.0856 28.336C29.0856 27.8311 29.4962 27.4205 30.0011 27.4205C30.506 27.4205 30.9166 27.8311 30.9166 28.336C30.9166 28.8409 30.506 29.2515 30.0011 29.2515Z" fill="white"/>
<path d="M5.5754 13.8707H2.88989C2.58645 13.8707 2.34058 14.1167 2.34058 14.42C2.34058 14.7234 2.58645 14.9694 2.88989 14.9694H5.5754C5.87885 14.9694 6.12472 14.7234 6.12472 14.42C6.12472 14.1167 5.87885 13.8707 5.5754 13.8707Z" fill="white"/>
</g>
<defs>
<clipPath id="clip0_112_888">
<rect width="37.5" height="37.5" fill="white" transform="translate(0.375 0.0625)"/>
</clipPath>
</defs>
</svg>
