<svg width="39" height="38" viewBox="0 0 39 38" fill="none" xmlns="http://www.w3.org/2000/svg">
<g clip-path="url(#clip0_112_865)">
<path d="M12.9276 25.7321C14.472 27.9096 16.0139 29.8571 17.0358 31.1115C17.1845 31.294 17.3239 31.4633 17.4589 31.6264H14.3751C14.03 31.6264 13.7502 31.9062 13.7502 32.2514C13.7502 32.5966 14.03 32.8764 14.3751 32.8764H24.3751C24.7203 32.8764 25.0001 32.5966 25.0001 32.2514C25.0001 31.9062 24.7203 31.6264 24.3751 31.6264H21.2914C21.4263 31.4633 21.5657 31.2939 21.7151 31.1115C22.7364 29.8614 24.2777 27.9096 25.8227 25.7321C27.3555 23.615 28.7353 21.3912 29.9514 19.0777C31.2277 16.5714 31.8752 14.4908 31.8752 12.8933C31.8794 9.57392 30.5622 6.38933 28.2145 4.04264C28.0577 3.88004 27.8254 3.81471 27.6068 3.87177C27.3883 3.92882 27.2175 4.09933 27.1601 4.31781C27.1028 4.5363 27.1678 4.7687 27.3301 4.92573C29.4433 7.03833 30.6289 9.90512 30.6252 12.8933C30.6252 14.292 30.0239 16.182 28.8377 18.5102C27.649 20.7701 26.3006 22.9423 24.8027 25.0102C23.2789 27.1596 21.7558 29.0852 20.7464 30.3227C20.4108 30.734 20.1089 31.0977 19.8514 31.4052C19.7312 31.5425 19.5576 31.6211 19.3752 31.6211C19.1927 31.6211 19.0192 31.5424 18.899 31.4052C18.6415 31.0978 18.3396 30.734 18.0039 30.3227C16.9946 29.0859 15.4714 27.1602 13.9477 25.0102C12.4498 22.9423 11.1014 20.7701 9.9127 18.5102C8.72522 16.182 8.12522 14.292 8.12522 12.8933C8.12486 8.36622 10.8322 4.27797 15.0003 2.51136C17.8009 1.33699 20.9559 1.33699 23.7566 2.51136C23.9622 2.59852 24.1987 2.56944 24.3771 2.4349C24.5554 2.30042 24.6484 2.08099 24.6211 1.85928C24.5938 1.63758 24.4503 1.4473 24.2446 1.36014C17.88 -1.32435 10.5442 1.65765 7.85774 8.02139C7.20625 9.56286 6.87212 11.2198 6.87527 12.8933C6.87527 14.4908 7.5228 16.5714 8.79905 19.0808C10.015 21.3933 11.3948 23.616 12.9276 25.7321Z" fill="white"/>
<path d="M19.3755 7.25142C19.7207 7.25142 20.0005 6.97163 20.0005 6.62644C20.0005 6.28125 19.7207 6.00146 19.3755 6.00146C16.3938 6.00139 13.8273 8.1077 13.2455 11.0321C12.6637 13.9565 14.2288 16.8846 16.9836 18.0258C19.7383 19.1669 22.9155 18.2031 24.5721 15.7239C26.2287 13.2447 25.9033 9.94052 23.7949 7.83209C23.6379 7.66964 23.4056 7.60445 23.1871 7.66165C22.9686 7.71885 22.7979 7.88951 22.7407 8.10799C22.6835 8.32655 22.7487 8.55887 22.9112 8.71583C24.5979 10.4025 24.8583 13.0458 23.5331 15.0292C22.208 17.0126 19.6662 17.7837 17.4624 16.8709C15.2586 15.9582 14.0065 13.6158 14.4717 11.2762C14.9369 8.93658 16.9902 7.25149 19.3755 7.25142Z" fill="white"/>
<path d="M37.8897 34.4834L34.0459 27.6084C33.6984 26.9976 33.0481 26.6221 32.3453 26.6265H27.8909C27.5457 26.6265 27.2659 26.9063 27.2659 27.2515C27.2659 27.5967 27.5457 27.8765 27.8909 27.8765H32.3453C32.5955 27.8716 32.8289 28.0021 32.9559 28.2177L36.7984 35.0927C36.9031 35.2716 36.9009 35.4934 36.7928 35.6702C36.6651 35.8812 36.4343 36.0075 36.1878 36.0015H2.56275C2.31651 36.0074 2.08594 35.881 1.95835 35.6702C1.85025 35.4934 1.84812 35.2716 1.95271 35.0927L5.79523 28.2177C5.92201 28.0021 6.15521 27.8717 6.40519 27.8765H10.8596C11.2048 27.8765 11.4845 27.5967 11.4845 27.2515C11.4845 26.9063 11.2048 26.6265 10.8596 26.6265H6.40526C5.70214 26.6219 5.0513 26.9973 4.7034 27.6084L0.86023 34.4834C0.539794 35.0494 0.547192 35.7438 0.879639 36.3028C1.22988 36.8982 1.87215 37.2602 2.56275 37.2516H36.1878C36.8782 37.26 37.5202 36.898 37.8703 36.3028C38.2028 35.7437 38.2102 35.0494 37.8897 34.4834Z" fill="white"/>
<path d="M31.2504 29.7515H28.7504C28.627 29.7517 28.5064 29.7882 28.4035 29.8566L26.5285 31.1066C26.2413 31.2982 26.1638 31.6863 26.3554 31.9735C26.547 32.2607 26.9351 32.3382 27.2223 32.1466L28.9379 31.0016H31.2504C31.5956 31.0016 31.8754 30.7218 31.8754 30.3767C31.8754 30.0313 31.5956 29.7515 31.2504 29.7515Z" fill="white"/>
<path d="M27.5002 34.1264C27.5002 34.4716 27.78 34.7514 28.1252 34.7514H33.1253C33.4705 34.7514 33.7502 34.4716 33.7502 34.1264C33.7502 33.7813 33.4705 33.5015 33.1253 33.5015H28.1252C27.78 33.5015 27.5002 33.7813 27.5002 34.1264Z" fill="white"/>
<path d="M11.8752 32.2515C12.1508 32.2519 12.394 32.0717 12.474 31.8081C12.5541 31.5444 12.452 31.2594 12.2228 31.1065L10.3477 29.8565C10.2448 29.7881 10.1238 29.7515 10.0002 29.7515H7.50022C7.15503 29.7515 6.87524 30.0313 6.87524 30.3764C6.87524 30.7216 7.1551 31.0014 7.50022 31.0014H9.81271L11.5302 32.1464C11.6324 32.2147 11.7525 32.2512 11.8752 32.2515Z" fill="white"/>
<path d="M5.62522 33.5015C5.28003 33.5015 5.00024 33.7813 5.00024 34.1264C5.00024 34.4716 5.28003 34.7514 5.62522 34.7514H10.6253C10.9705 34.7514 11.2502 34.4716 11.2502 34.1264C11.2502 33.7813 10.9705 33.5015 10.6253 33.5015H5.62522Z" fill="white"/>
</g>
<defs>
<clipPath id="clip0_112_865">
<rect width="37.5" height="37.5" fill="white" transform="translate(0.625 0.0625)"/>
</clipPath>
</defs>
</svg>
