<svg width="39" height="38" viewBox="0 0 39 38" fill="none" xmlns="http://www.w3.org/2000/svg">
<g clip-path="url(#clip0_112_903)">
<path d="M13.8438 29.7501H4.46875C2.31406 29.7501 0.5625 27.997 0.5625 25.8438V7.09384C0.5625 4.94072 2.31406 3.18759 4.46875 3.18759H27.9063C30.0609 3.18759 31.8125 4.94072 31.8125 7.09384V13.3438C31.8125 13.7767 31.4625 14.1251 31.0313 14.1251C30.6 14.1251 30.25 13.7767 30.25 13.3438V7.09384C30.25 5.80165 29.1984 4.75009 27.9063 4.75009H4.46875C3.17656 4.75009 2.125 5.80165 2.125 7.09384V25.8438C2.125 27.136 3.17656 28.1876 4.46875 28.1876H13.8438C14.275 28.1876 14.625 28.5376 14.625 28.9688C14.625 29.4001 14.275 29.7501 13.8438 29.7501Z" fill="white"/>
<path d="M31.0313 11H1.34375C0.9125 11 0.5625 10.65 0.5625 10.2188C0.5625 9.7875 0.9125 9.4375 1.34375 9.4375H31.0313C31.4625 9.4375 31.8125 9.7875 31.8125 10.2188C31.8125 10.65 31.4625 11 31.0313 11Z" fill="white"/>
<path d="M7.59399 7.875C7.16274 7.875 6.81274 7.525 6.81274 7.09375V0.84375C6.81274 0.4125 7.16274 0.0625 7.59399 0.0625C8.02524 0.0625 8.37524 0.4125 8.37524 0.84375V7.09375C8.37524 7.525 8.02524 7.875 7.59399 7.875Z" fill="white"/>
<path d="M24.7812 7.875C24.35 7.875 24 7.525 24 7.09375V0.84375C24 0.4125 24.35 0.0625 24.7812 0.0625C25.2125 0.0625 25.5625 0.4125 25.5625 0.84375V7.09375C25.5625 7.525 25.2125 7.875 24.7812 7.875Z" fill="white"/>
<path d="M26.3438 31.3125C26.136 31.3125 25.9375 31.2297 25.7906 31.0844L22.6656 27.9594C22.361 27.6547 22.361 27.1594 22.6656 26.8547C22.9703 26.55 23.4656 26.55 23.7703 26.8547L26.3047 29.3891L31.2235 23.7672C31.5078 23.4406 32.0016 23.4094 32.325 23.6938C32.65 23.9781 32.6828 24.4719 32.3985 24.7969L26.9297 31.0469C26.7875 31.2094 26.5844 31.3062 26.3688 31.3125C26.361 31.3125 26.3531 31.3125 26.3438 31.3125Z" fill="white"/>
<path d="M27.906 37.5626C22.306 37.5626 17.7498 33.0064 17.7498 27.4064C17.7498 21.8064 22.306 17.2501 27.906 17.2501C33.506 17.2501 38.0622 21.8064 38.0622 27.4064C38.0622 33.0064 33.506 37.5626 27.906 37.5626ZM27.906 18.8126C23.1685 18.8126 19.3123 22.6673 19.3123 27.4064C19.3123 32.1454 23.1685 36.0001 27.906 36.0001C32.6435 36.0001 36.4997 32.1454 36.4997 27.4064C36.4997 22.6673 32.6435 18.8126 27.906 18.8126Z" fill="white"/>
</g>
<defs>
<clipPath id="clip0_112_903">
<rect width="37.5" height="37.5" fill="white" transform="translate(0.5625 0.0625)"/>
</clipPath>
</defs>
</svg>
